# xmcd CD database file
#
# Track frame offsets:
#	150
#	18177
#	31987
#	52348
#	79917
#	96627
#	119273
#	143101
#	165828
#	185184
#	203601
#	216740
#	234743
#	251257
#
# Disc length: 3574 seconds
#
# Revision: 0
# Processed by: cddbd v1.5.2PL0 Copyright (c) Steve Scherf et al.
# Submitted via: CDex 1.70beta2
#
DISCID=ca0df40e
DTITLE=Divers Artistes - Midem 2001 - Belgian Artistic Promotion
DYEAR=2001
DGENRE=Jazz
TTITLE0=Youssef AITSIM'HAND - You wanna be
TTITLE1=ARCADIA - Changes
TTITLE2=Olivier BERTOLI - Australopithèque
TTITLE3=Eclipse - Collage
TTITLE4=Yvon HUBERT - Pseudo blues
TTITLE5=Lannucci BERNARDINO - Timer
TTITLE6=Marc MATTHYS - Waves
TTITLE7=Fabien Degryse Jazz - Arlequin
TTITLE8=B. Verdin, P. odje, D. Tchangou - Blue song
TTITLE9=Alfons MINNAERT - Do you like it
TTITLE10=Paul KLINCK - Sherlock Holmes
TTITLE11=Titanic Ensemble - Sâdi
TTITLE12=Doctor Gabs - Valse des mille bougies
TTITLE13=Koen VERMEIREN - De Hogepriester
EXTD=YEAR: 2001
EXTT0=
EXTT1=
EXTT2=
EXTT3=
EXTT4=
EXTT5=
EXTT6=
EXTT7=
EXTT8=
EXTT9=
EXTT10=
EXTT11=
EXTT12=
EXTT13=
PLAYORDER=
